<svg xmlns="http://www.w3.org/2000/svg" width="88" height="66.006" viewBox="0 0 88 66.006">
  <path id="Description" d="M47.53-105.022V-71.41H10.422V-93.574a54.337,54.337,0,0,1,4.771-23.017q4.771-10.351,16.169-20.825l13.518,9.743a72.1,72.1,0,0,0-9.807,11.691,30.806,30.806,0,0,0-4.506,10.96Zm50.891,0V-71.41H61.313V-93.574a54.337,54.337,0,0,1,4.771-23.017q4.771-10.351,16.169-20.825l13.518,9.743a72.1,72.1,0,0,0-9.807,11.691,30.806,30.806,0,0,0-4.506,10.96Z" transform="translate(-10.422 137.416)" fill="rgba(200,201,199,0.4)"/>
</svg>
