<svg width="108" height="82" viewBox="0 0 108 82" fill="none" xmlns="http://www.w3.org/2000/svg">
<path d="M1.26611 12.1628L28.3961 20.6268L107.312 5.29337L80.3255 1L1.26611 12.1628Z" fill="#ECF5FC" stroke="#15354E" stroke-width="0.5"/>
<path d="M28.6409 80.9999L28.3955 20.6268L107.312 5.29333V44.3426L28.6409 80.9999Z" fill="#ECF5FC" stroke="#15354E" stroke-width="0.5"/>
<path d="M1 58.8584L1.40889 12.2446L28.3958 20.6269V80.7341L1 58.8584Z" fill="#ECF5FC" stroke="#15354E" stroke-width="0.5"/>
<path d="M105.676 8.15564L31.6667 23.2847V75.4185L105.676 42.7071V8.15564Z" fill="#ECF5FC" stroke="#15354E" stroke-width="0.5"/>
<path d="M26.5554 22.8755L2.59423 14.4932L2.22632 57.018L26.5554 75.4182V22.8755Z" fill="#ECF5FC" stroke="#15354E" stroke-width="0.5"/>
<path d="M11.6316 17.7645V63.9694" stroke="#15354E" stroke-width="0.5"/>
<path d="M14.4937 18.7869V66.014" stroke="#15354E" stroke-width="0.5"/>
<path d="M17.3555 19.6045V68.2627" stroke="#15354E" stroke-width="0.5"/>
<path d="M36.3691 22.4667V73.3738" stroke="#15354E" stroke-width="0.5"/>
<path d="M41.0713 21.4447V71.1252" stroke="#15354E" stroke-width="0.5"/>
<path d="M45.1604 20.6271V69.2853" stroke="#15354E" stroke-width="0.5"/>
<path d="M49.2495 19.6045V67.6494" stroke="#15354E" stroke-width="0.5"/>
<path d="M53.3381 18.9912V65.8094" stroke="#15354E" stroke-width="0.5"/>
<path d="M57.4268 17.9694V63.9698" stroke="#15354E" stroke-width="0.5"/>
<path d="M61.5159 17.1512V62.1294" stroke="#15354E" stroke-width="0.5"/>
<path d="M65.605 16.3334V60.4938" stroke="#15354E" stroke-width="0.5"/>
<path d="M69.6941 15.5157V58.4495" stroke="#15354E" stroke-width="0.5"/>
<path d="M73.7832 14.6978V56.8137" stroke="#15354E" stroke-width="0.5"/>
<path d="M77.8718 13.6758V54.9739" stroke="#15354E" stroke-width="0.5"/>
<path d="M81.9609 13.0623V53.1337" stroke="#15354E" stroke-width="0.5"/>
<path d="M86.0496 12.2446V51.2939" stroke="#15354E" stroke-width="0.5"/>
<path d="M90.1387 11.427V49.454" stroke="#15354E" stroke-width="0.5"/>
<path d="M94.2273 10.6091V47.6139" stroke="#15354E" stroke-width="0.5"/>
<path d="M98.3164 9.79102V45.978" stroke="#15354E" stroke-width="0.5"/>
<path d="M102.406 8.7688V44.138" stroke="#15354E" stroke-width="0.5"/>
<path d="M49.1218 11.3652C49.1218 11.59 48.9907 11.8407 48.6705 12.1028C48.3521 12.3634 47.8762 12.6091 47.2661 12.8203C46.0482 13.2419 44.3496 13.5072 42.4616 13.5072C40.5735 13.5072 38.8749 13.2419 37.657 12.8203C37.0469 12.6091 36.571 12.3634 36.2526 12.1028C35.9324 11.8407 35.8013 11.59 35.8013 11.3652C35.8013 11.1403 35.9324 10.8896 36.2526 10.6276C36.571 10.367 37.0469 10.1212 37.657 9.91C38.8749 9.48843 40.5735 9.22314 42.4616 9.22314C44.3496 9.22314 46.0482 9.48843 47.2661 9.91C47.8762 10.1212 48.3521 10.367 48.6705 10.6276C48.9907 10.8896 49.1218 11.1403 49.1218 11.3652Z" stroke="#15354E" stroke-width="0.5"/>
<path d="M73.5733 7.1126C73.5733 7.33748 73.4421 7.58814 73.1219 7.85022C72.8035 8.11079 72.3276 8.35658 71.7175 8.56777C70.4996 8.98934 68.801 9.25462 66.913 9.25462C65.0249 9.25462 63.3263 8.98934 62.1084 8.56777C61.4983 8.35658 61.0225 8.11079 60.7041 7.85022C60.3838 7.58814 60.2527 7.33748 60.2527 7.1126C60.2527 6.88773 60.3838 6.63707 60.7041 6.37499C61.0225 6.11442 61.4983 5.86863 62.1084 5.65743C63.3263 5.23587 65.0249 4.97058 66.913 4.97058C68.801 4.97058 70.4996 5.23587 71.7175 5.65743C72.3276 5.86863 72.8035 6.11442 73.1219 6.37499C73.4421 6.63707 73.5733 6.88773 73.5733 7.1126Z" stroke="#15354E" stroke-width="0.5"/>
</svg>
