<svg width="159" height="82" viewBox="0 0 159 82" fill="none" xmlns="http://www.w3.org/2000/svg">
<path d="M154.691 31.2792L157.853 29.6304V21.5698L154.109 22.1668L154.273 30.8927L154.691 31.2792Z" fill="#ECF5FC" stroke="#15354E" stroke-width="0.5" stroke-linecap="round" stroke-linejoin="round"/>
<path d="M149.689 29.2376L154.694 31.2883V22.8129L150.844 21.1653L149.689 29.2376Z" fill="#ECF5FC" stroke="#15354E" stroke-width="0.5" stroke-linecap="round" stroke-linejoin="round"/>
<path d="M154.702 22.8729L157.869 21.5962L153.278 20.116L150.355 21.2717L154.702 22.8729Z" fill="#ECF5FC" stroke="#15354E" stroke-width="0.5" stroke-linecap="round" stroke-linejoin="round"/>
<path d="M101.27 3.12211L104.514 5.01867L104.514 2.90021L101.269 1.66528L101.27 3.12211Z" fill="#ECF5FC" stroke="#15354E" stroke-width="0.5" stroke-linecap="round" stroke-linejoin="round"/>
<path d="M105.773 5.36305L106.908 5.0386L107.062 4.47484V3.3848V2.05249L104.226 2.94254L104.328 5.0386L105.773 5.36305Z" fill="#ECF5FC" stroke="#15354E" stroke-width="0.5" stroke-linecap="round" stroke-linejoin="round"/>
<path d="M104.443 2.93132L107.158 2.10125L103.831 1L101.279 1.70304L104.443 2.93132Z" fill="#ECF5FC" stroke="#15354E" stroke-width="0.5" stroke-linecap="round" stroke-linejoin="round"/>
<path d="M45.6061 65.8632L152.885 22.2034L102.196 2.03564L5.58838 33.839L45.6061 65.8632Z" fill="#ECF5FC" stroke="#15354E" stroke-width="0.5" stroke-linecap="round" stroke-linejoin="round"/>
<path d="M8.32429 37.8935L106.587 3.78437L102.936 2.34692L5.7832 34.5545L8.32429 37.8935Z" fill="#ECF5FC" stroke="#15354E" stroke-width="0.5" stroke-linecap="round" stroke-linejoin="round"/>
<path d="M17.3343 44.5154L117.979 8.32602L111.937 5.92139L11.4023 40.5609L17.3343 44.5154Z" fill="#ECF5FC" stroke="#15354E" stroke-width="0.5" stroke-linecap="round" stroke-linejoin="round"/>
<path d="M26.2957 52.8338L130.254 13.1955L124.288 10.8274L21.2417 47.7799L26.2957 52.8338Z" fill="#ECF5FC" stroke="#15354E" stroke-width="0.5" stroke-linecap="round" stroke-linejoin="round"/>
<path d="M39.5692 61.3121L145.256 19.1771L137.538 16.1199L31.4424 56.9636L39.5692 61.3121Z" fill="#ECF5FC" stroke="#15354E" stroke-width="0.5" stroke-linecap="round" stroke-linejoin="round"/>
<path d="M45.583 77.2496L152.885 30.5691L152.885 22.2043L45.5833 65.6665L45.583 77.2496Z" fill="#ECF5FC" stroke="#15354E" stroke-width="0.5" stroke-linecap="round" stroke-linejoin="round"/>
<path d="M57.6841 69.9379L76.4357 61.7447V56.5012L57.6841 63.993V69.9379Z" fill="#ECF5FC" stroke="#15354E" stroke-width="0.5" stroke-linecap="round" stroke-linejoin="round"/>
<path d="M131.898 37.7999L147.143 31.2609V26.9585L131.898 33.0324V37.7999Z" fill="#ECF5FC" stroke="#15354E" stroke-width="0.5" stroke-linecap="round" stroke-linejoin="round"/>
<path d="M5.57935 33.8255L45.5804 65.6746L45.542 77.9168L5.57934 42.989L5.57935 33.8255Z" fill="#ECF5FC" stroke="#15354E" stroke-width="0.5" stroke-linecap="round" stroke-linejoin="round"/>
<path d="M37.2764 75.1097L42.4546 80.3213V69.1074L37.2764 64.8022V75.1097Z" fill="#ECF5FC" stroke="#15354E" stroke-width="0.5" stroke-linecap="round" stroke-linejoin="round"/>
<path d="M3.79473 36.9647L7.74895 35.5445L4.96624 33.3633L1.30857 34.4192L3.79473 36.9647Z" fill="#ECF5FC" stroke="#15354E" stroke-width="0.5" stroke-linecap="round" stroke-linejoin="round"/>
<path d="M42.453 80.3213L47.7559 78.0569V72.6254V67.1902L42.4529 69.1431V78.1909L42.453 80.3213Z" fill="#ECF5FC" stroke="#15354E" stroke-width="0.5" stroke-linecap="round" stroke-linejoin="round"/>
<path d="M1.2906 42.6393L3.87349 46.5584L4.20088 37.226L1.29053 34.4756L1.2906 42.6393Z" fill="#ECF5FC" stroke="#15354E" stroke-width="0.5" stroke-linecap="round" stroke-linejoin="round"/>
<path d="M3.85742 46.5554L7.75002 44.8182V35.5378L3.85764 36.9242L3.85742 44.2889V46.5554Z" fill="#ECF5FC" stroke="#15354E" stroke-width="0.5" stroke-linecap="round" stroke-linejoin="round"/>
<path d="M42.2657 69.4492L47.7629 67.1991L42.2657 63.0471L37.2764 64.7642L42.2657 69.4492Z" fill="#ECF5FC" stroke="#15354E" stroke-width="0.5" stroke-linecap="round" stroke-linejoin="round"/>
</svg>
