<svg width="97" height="80" viewBox="0 0 97 80" fill="none" xmlns="http://www.w3.org/2000/svg">
<path d="M79.1411 46.5464L88.6066 40.1612L87.5573 41.9291L80.2455 46.978L79.1411 46.5464Z" fill="#ECF5FC" stroke="#15354E" stroke-width="0.5" stroke-linecap="round" stroke-linejoin="round"/>
<path d="M12.2783 55.1724L6.43686 48.4497L6.62243 47.7268L13.194 55.0862L12.2783 55.1724Z" fill="#ECF5FC" stroke="#15354E" stroke-width="0.5" stroke-linecap="round" stroke-linejoin="round"/>
<rect width="0.150202" height="4.26292" transform="matrix(-1 0 0 1 60.8762 7.48608)" fill="#ECF5FC" stroke="#15354E" stroke-width="0.5" stroke-linecap="round" stroke-linejoin="round"/>
<path d="M28.5587 71.9815L88.607 48.4758L60.2343 37.6178L6.15918 54.7402L28.5587 71.9815Z" fill="#ECF5FC" stroke="#15354E" stroke-width="0.5" stroke-linecap="round" stroke-linejoin="round"/>
<path d="M7.69041 56.923L62.6921 38.5592L60.6484 37.7853L6.26807 55.1253L7.69041 56.923Z" fill="#ECF5FC" stroke="#15354E" stroke-width="0.5" stroke-linecap="round" stroke-linejoin="round"/>
<path d="M12.7339 60.4879L69.0688 41.0041L65.6871 39.7095L9.41357 58.3588L12.7339 60.4879Z" fill="#ECF5FC" stroke="#15354E" stroke-width="0.5" stroke-linecap="round" stroke-linejoin="round"/>
<path d="M17.7498 64.9666L75.9396 43.6259L72.6002 42.351L14.9209 62.2456L17.7498 64.9666Z" fill="#ECF5FC" stroke="#15354E" stroke-width="0.5" stroke-linecap="round" stroke-linejoin="round"/>
<path d="M25.1795 69.5314L84.3367 46.8465L80.0164 45.2006L20.6306 67.1902L25.1795 69.5314Z" fill="#ECF5FC" stroke="#15354E" stroke-width="0.5" stroke-linecap="round" stroke-linejoin="round"/>
<path d="M28.5457 78.1116L88.607 52.9795L88.607 48.4761L28.5458 71.8754L28.5457 78.1116Z" fill="#ECF5FC" stroke="#15354E" stroke-width="0.5" stroke-linecap="round" stroke-linejoin="round"/>
<path d="M35.3191 74.1753L45.8151 69.7643V68.0381L35.3191 72.3348V74.1753Z" fill="#ECF5FC" stroke="#15354E" stroke-width="0.5" stroke-linecap="round" stroke-linejoin="round"/>
<path d="M76.8599 56.8724L85.3926 53.3519V51.8535L76.8599 55.3515V56.8724Z" fill="#ECF5FC" stroke="#15354E" stroke-width="0.5" stroke-linecap="round" stroke-linejoin="round"/>
<path d="M6.15389 54.733L28.5441 71.8801L28.5441 78.1976L6.15389 59.6665L6.15389 54.733Z" fill="#ECF5FC" stroke="#15354E" stroke-width="0.5" stroke-linecap="round" stroke-linejoin="round"/>
<path d="M6.26782 19.6981L60.8555 7.40995L60.9122 7.57127L7.21335 20.2462L6.26782 19.6981Z" fill="#ECF5FC" stroke="#15354E" stroke-width="0.5" stroke-linecap="round" stroke-linejoin="round"/>
<path d="M7.92588 47.825C4.74832 36.8358 11.1494 25.3657 22.1705 22.3002L64.3131 10.5786C74.9973 7.60687 86.0634 13.8787 89.0029 24.5719C91.88 35.0382 85.9 45.8923 75.5157 49.0523L33.668 61.7866C22.6953 65.1255 11.1118 58.8431 7.92588 47.825Z" fill="#ECF5FC" stroke="#15354E" stroke-width="0.5" stroke-linecap="round" stroke-linejoin="round"/>
<path d="M28.54 33.866L88.6123 15.5338V48.4885L28.54 71.9816V33.866Z" stroke="#15354E" stroke-width="0.5" stroke-linecap="round" stroke-linejoin="round"/>
<path d="M28.5639 33.8331L28.542 71.928L6.18164 54.7662V19.6445L28.5639 33.8331Z" stroke="#15354E" stroke-width="0.5" stroke-linecap="round" stroke-linejoin="round"/>
<path d="M21.7695 66.3973L28.1816 59.3688L28.4012 61.1784L22.633 67.4395L21.7695 66.3973Z" fill="#ECF5FC" stroke="#15354E" stroke-width="0.5" stroke-linecap="round" stroke-linejoin="round"/>
<path d="M28.6606 59.2974L37.8628 69.5314L35.8108 69.3L28.8217 61.1198L28.6606 59.2974Z" fill="#ECF5FC" stroke="#15354E" stroke-width="0.5" stroke-linecap="round" stroke-linejoin="round"/>
<path d="M83.1619 50.2542L88.5906 39.557L88.3036 42.1478L84.3375 50.0991L83.1619 50.2542Z" fill="#ECF5FC" stroke="#15354E" stroke-width="0.5" stroke-linecap="round" stroke-linejoin="round"/>
<path d="M8.55434 57.0365L6.30949 48.4181L6.65131 47.6725L9.41292 57.3663L8.55434 57.0365Z" fill="#ECF5FC" stroke="#15354E" stroke-width="0.5" stroke-linecap="round" stroke-linejoin="round"/>
<path d="M60.8497 7.41266L88.5768 15.5482L88.5135 15.7632L60.8008 7.57494L60.8497 7.41266Z" fill="#ECF5FC" stroke="#15354E" stroke-width="0.5" stroke-linecap="round" stroke-linejoin="round"/>
</svg>
