<svg width="35" height="21" viewBox="0 0 35 21" fill="none" xmlns="http://www.w3.org/2000/svg">
<path d="M21.4909 2.65521L21.4909 2.65518C21.9812 1.90192 23.2038 1.90192 23.6941 2.65518L23.6941 2.65519L34.23 18.8405L34.2303 18.8409C34.6952 19.553 34.1756 20.5343 33.19 20.5343H29.5956L19.8304 5.20574L21.4909 2.65521Z" stroke="#9FB1C1" stroke-width="0.7"/>
<path d="M0.543647 18.6353L0.543713 18.6352L11.8345 0.978269C11.8345 0.978259 11.8345 0.97825 11.8345 0.978241C12.3705 0.140229 13.698 0.141079 14.2315 0.977836L14.2318 0.97835L18.0792 6.99011L18.0796 6.99074L26.7067 20.5343H1.67934C0.617142 20.5343 0.0251127 19.4456 0.543647 18.6353Z" stroke="#9FB1C1" stroke-width="0.7"/>
</svg>
