<?xml version="1.0" encoding="utf-8"?>
<!-- Generator: Adobe Illustrator 25.3.1, SVG Export Plug-In . SVG Version: 6.00 Build 0)  -->
<svg version="1.1" id="Layer_1" xmlns="http://www.w3.org/2000/svg" xmlns:xlink="http://www.w3.org/1999/xlink" x="0px" y="0px"
	 viewBox="0 0 1080 1080" style="enable-background:new 0 0 1080 1080;" xml:space="preserve">
<style type="text/css">
	.st0{fill:#FAAF19;}
	.st1{fill:#062C3F;}
</style>
<g>
	<path class="st0" d="M912.1,1040H167.9C97.26,1040,40,982.74,40,912.1V167.9C40,97.26,97.26,40,167.9,40H912.1
		c70.64,0,127.9,57.26,127.9,127.9V912.1C1040,982.74,982.74,1040,912.1,1040z"/>
	<g>
		<g>
			<polygon class="st1" points="928.42,308.56 928.42,639.78 833.9,674.45 833.9,341.06 			"/>
			<path class="st1" d="M232.61,539.98c0,23.42,17.95,42.49,40.05,42.49h171.36v86.54H274.51c-67.77,0-122.93-57.9-122.93-129.03
				c0-71.1,55.16-129,122.93-129h74.63v-74.37l94.89-37.48v198.39H272.66C250.56,497.51,232.61,516.58,232.61,539.98z"/>
			<path class="st1" d="M704.15,540.02c0-23.42-17.95-42.49-40.05-42.49H492.74v-86.54h169.52c67.77,0,122.93,57.9,122.93,129.03
				c0,71.1-55.16,129-122.93,129h-74.63v74.37l-94.89,37.48V582.49H664.1C686.21,582.49,704.15,563.42,704.15,540.02z"/>
		</g>
	</g>
</g>
</svg>
